# xmcd
#
# Track frame offsets:
#	150
#	18198
#	31688
#	50126
#	65708
#	78849
#	96289
#	111387
#	125756
#	140194
#	156204
#	174877
#
# Disc length: 2496 seconds
# Revision: 1
# Processed by: cddbd v1.5.2PL0 Copyright (c) Steve Scherf et al.
# Submitted via: dBpowerAMP V12.0
#
DISCID=a309be0c
DTITLE=Various Artist - Beauty Is… The Final Sessions
DYEAR=2014
DGENRE=Country
TTITLE0=Vince Gill - Beauty Lies in the Eyes of the Beholder
TTITLE1=Ray Price - This Thing of Ours
TTITLE2=Ray Price - I Can See You with My Eyes Closed
TTITLE3=Ray Price - It Always Will Be
TTITLE4=Ray Price - No More Songs to Sing
TTITLE5=Martina McBride - An Affair to Remember
TTITLE6=Ray Price - Senses
TTITLE7=Vince Gill - Until Then
TTITLE8=Ray Price - Beautiful Dreamer
TTITLE9=Ray Price - I Wish I Was 18 Again
TTITLE10=Ray Price - Among My Souvenirs
TTITLE11=Ray Price - I Believe
EXTD=
EXTT0=
EXTT1=
EXTT2=
EXTT3=
EXTT4=
EXTT5=
EXTT6=
EXTT7=
EXTT8=
EXTT9=
EXTT10=
EXTT11=
PLAYORDER=
